<svg width="15" height="15" viewBox="0 0 15 15" fill="none" xmlns="http://www.w3.org/2000/svg">
<path d="M4.00195 4.06606C3.70771 4.14923 3.43828 4.30309 3.21712 4.51424C2.99596 4.72539 2.8298 4.98742 2.73311 5.27749L0 13.4765L0.430371 13.9069L4.82812 9.50913C4.74053 9.32573 4.6875 9.123 4.6875 8.9062C4.6875 8.12954 5.31709 7.49995 6.09375 7.49995C6.87041 7.49995 7.5 8.12954 7.5 8.9062C7.5 9.68286 6.87041 10.3125 6.09375 10.3125C5.87695 10.3125 5.67422 10.2594 5.49082 10.1718L1.09307 14.5696L1.52344 15L9.72246 12.2668C10.0125 12.1702 10.2746 12.004 10.4857 11.7828C10.6969 11.5617 10.8507 11.2922 10.9339 10.998L12.1875 6.56245L8.4375 2.81245L4.00195 4.06606ZM14.5881 2.1729L12.8271 0.411865C12.2777 -0.137451 11.3868 -0.137451 10.8375 0.411865L9.18076 2.0686L12.9313 5.81919L14.5881 4.16245C15.1374 3.61313 15.1374 2.72251 14.5881 2.1729Z" fill="#42B883"/>
</svg>
